<svg width="26" height="26" viewBox="0 0 26 26" fill="none" xmlns="http://www.w3.org/2000/svg">
<path d="M0.907347 26H19.4469C19.951 26 20.3596 25.5914 20.3596 25.0873V20.3543H25.0927C25.5967 20.3543 26 19.9457 26 19.4469V0.907347C26 0.403265 25.5914 0 25.0927 0H6.55306C6.04898 0 5.64041 0.408571 5.64041 0.907347V5.64041H0.907347C0.403265 5.64041 0 6.04898 0 6.55306V25.0927C0 25.5914 0.408571 26 0.907347 26ZM7.46041 1.82H24.18V18.5396H7.46041V1.82ZM1.82 7.46041H5.64041V19.4469C5.64041 19.951 6.04898 20.3543 6.55306 20.3543H18.5396V24.1747H1.82V7.46041Z" fill="#B9BAC7"/>
<path d="M11.6469 11.0891H14.9102V14.3524C14.9102 14.8565 15.3188 15.265 15.8228 15.265C16.3269 15.265 16.7302 14.8565 16.7302 14.3524V11.0891H19.9935C20.4975 11.0891 20.9008 10.6805 20.9008 10.1765C20.9008 9.67238 20.4922 9.26381 19.9935 9.26381H16.7302V6.00054C16.7302 5.49646 16.3216 5.08789 15.8228 5.08789C15.3188 5.08789 14.9102 5.49646 14.9102 6.00054V9.26381H11.6469C11.1428 9.26381 10.7396 9.67238 10.7396 10.1765C10.7343 10.6805 11.1428 11.0891 11.6469 11.0891Z" fill="#B9BAC7"/>
</svg>
