<svg xmlns="http://www.w3.org/2000/svg" width="403" height="377" viewBox="0 0 403 377">
  <g id="Group_1" data-name="Group 1" transform="translate(1264 1427)">
    <g id="Rectangle_1" data-name="Rectangle 1" transform="translate(-1264 -1427)" fill="#131313" stroke="#707070" stroke-width="1">
      <rect width="403" height="377" rx="58" stroke="none"/>
      <rect x="0.5" y="0.5" width="402" height="376" rx="57.5" fill="none"/>
    </g>
    <path id="Apple_logo_black" d="M189.75,260.053c-14.641,14.209-30.795,11.994-46.192,5.295-16.37-6.834-31.335-7.266-48.623,0-21.529,9.292-32.956,6.591-45.922-5.295-73.2-75.366-62.4-190.171,20.8-194.493C89.992,66.641,104.119,76.717,116,77.554c17.666-3.593,34.576-13.885,53.485-12.534q34.077,2.755,51.054,26.932c-46.732,28.093-35.657,89.683,7.266,106.971-8.59,22.556-19.611,44.841-38.088,61.319ZM114.384,64.75C112.2,31.254,139.344,3.7,170.571,1,174.866,39.628,135.454,68.532,114.384,64.75Z" transform="translate(-1187.164 -1384)" fill="#fff"/>
  </g>
</svg>
