<svg width="18" height="18" viewBox="0 0 18 18" fill="none" xmlns="http://www.w3.org/2000/svg">
<path d="M16.7705 0.586907C15.988 -0.195636 14.7193 -0.195636 13.9367 0.586907L5.9927 8.53095C5.93825 8.58539 5.89894 8.65288 5.87842 8.72698L4.83375 12.4985C4.79079 12.6531 4.83445 12.8187 4.94786 12.9323C5.06144 13.0457 5.22702 13.0893 5.38165 13.0465L9.15313 12.0017C9.22723 11.9812 9.29471 11.9419 9.34916 11.8874L17.293 3.94319C18.0744 3.16013 18.0744 1.89248 17.293 1.10941L16.7705 0.586907ZM6.96292 8.82038L13.4645 2.31862L15.5613 4.41543L9.05955 10.9172L6.96292 8.82038ZM6.54408 9.66085L8.21926 11.3362L5.90207 11.9782L6.54408 9.66085ZM16.6634 3.31354L16.1911 3.78578L14.0942 1.6888L14.5666 1.21656C15.0012 0.78189 15.706 0.78189 16.1407 1.21656L16.6634 1.73906C17.0973 2.17425 17.0973 2.87853 16.6634 3.31354Z" fill="white"/>
<path d="M14.6625 18H2.33754C1.04807 18 0 16.9519 0 15.6625V3.33754C0 2.04807 1.04807 1 2.33754 1H9.56247C9.91437 1 10.2 1.2856 10.2 1.6375C10.2 1.9894 9.91437 2.275 9.56247 2.275H2.33754C1.75187 2.275 1.275 2.75187 1.275 3.33754V15.6625C1.275 16.2481 1.75187 16.725 2.33754 16.725H14.6625C15.2481 16.725 15.725 16.2481 15.725 15.6625V8.43753C15.725 8.08563 16.0106 7.80003 16.3625 7.80003C16.7144 7.80003 17 8.08485 17 8.43753V15.6625C17 16.9519 15.9519 18 14.6625 18Z" fill="white"/>
</svg>
