<svg width="34" height="34" viewBox="0 0 34 34" fill="none" xmlns="http://www.w3.org/2000/svg">
<path d="M0 31.5098V6.43822C0 5.09117 1.13714 3.94798 2.49023 3.94798H9.53919C9.77002 1.73287 11.652 0 13.9323 0C16.2126 0 18.0946 1.73287 18.3255 3.94798H31.5098C32.8644 3.94798 34 5.0826 34 6.43822V31.5098C34 32.8829 32.8829 34 31.5098 34H2.49023C1.43099 34 0 33.0039 0 31.5098ZM10.5392 21.6196L0.996094 11.766V31.1627L10.5392 21.6196ZM13.9323 0.996094C12.046 0.996094 10.5112 2.52623 10.5112 4.40705C10.5112 5.74939 11.043 7.6332 11.8988 9.32337C12.7802 11.0639 13.6185 11.8469 13.9323 11.8469C14.2324 11.8469 15.0567 11.1365 15.9914 9.23007C16.8188 7.54249 17.3534 5.64931 17.3534 4.40705C17.3533 2.52623 15.8187 0.996094 13.9323 0.996094ZM33.0039 6.43822C33.0039 6.20527 32.9503 5.9846 32.8548 5.7879L27.4323 11.2104L33.0039 16.7819V6.43822ZM33.0039 31.5098V23.326L24.1603 14.4823L5.63875 33.0039H31.5098C32.3337 33.0039 33.0039 32.3336 33.0039 31.5098ZM2.49023 33.0039H4.22995L23.8081 13.4258C24.0026 13.2314 24.318 13.2314 24.5124 13.4258L33.0039 21.9172V18.1907L26.3758 11.5625C26.1813 11.368 26.1813 11.0527 26.3758 10.8582L32.1469 5.08705C31.9535 4.99548 31.7375 4.94408 31.5098 4.94408H28.6236L14.2414 19.3262C14.0456 19.5218 13.7276 19.5206 13.5335 19.3227L7.23556 12.8994C6.78479 12.4396 7.49581 11.7424 7.94684 12.202L13.8927 18.2661L27.2148 4.94408H18.3255C18.1925 6.52262 17.5198 8.37529 16.8858 9.66862C15.5316 12.4307 14.4541 12.843 13.9323 12.843C12.6978 12.843 11.4775 10.6964 11.0102 9.77341C10.1809 8.13596 9.64863 6.3756 9.53766 4.94408H2.49023C2.03356 4.94408 1.62429 5.15027 1.35004 5.47413L5.97118 10.1871C6.42129 10.6463 5.71173 11.3453 5.25991 10.8845L0.996094 6.53597V10.3341L11.5957 21.2788C11.7849 21.4741 11.7825 21.7851 11.5901 21.9774L1.24047 32.3272C1.50762 32.7343 1.96795 33.0039 2.49023 33.0039Z" fill="#B9BAC7"/>
<path d="M13.9323 6.85291C12.65 6.85291 11.6068 5.80761 11.6068 4.52264C11.6068 3.23768 12.65 2.19238 13.9323 2.19238C15.2147 2.19238 16.2579 3.23768 16.2579 4.52264C16.2579 5.80761 15.2146 6.85291 13.9323 6.85291ZM13.9323 3.18854C13.1993 3.18854 12.6029 3.78706 12.6029 4.52271C12.6029 5.25836 13.1992 5.85688 13.9323 5.85688C14.6654 5.85688 15.2618 5.25836 15.2618 4.52271C15.2618 3.78706 14.6654 3.18854 13.9323 3.18854Z" fill="#B9BAC7"/>
<path d="M20.0288 21.4982C20.3162 20.9218 21.2076 21.3665 20.9202 21.9428C20.6837 22.4171 20.5637 22.9271 20.5637 23.4588C20.5637 24.8011 21.0953 26.685 21.9512 28.3751C22.8326 30.1156 23.6709 30.8986 23.9848 30.8986C24.2848 30.8986 25.1092 30.1882 26.0438 28.2818C26.8712 26.5942 27.4058 24.7011 27.4058 23.4588C27.4058 21.578 25.8712 20.0479 23.9848 20.0479C23.4873 20.0479 23.0065 20.1528 22.5557 20.3598C21.9705 20.6286 21.5548 19.7234 22.1399 19.4546C22.7221 19.1873 23.3427 19.0518 23.9847 19.0518C26.4204 19.0518 28.4019 21.0287 28.4019 23.4588C28.4019 25.137 27.6458 27.277 26.9381 28.7202C25.584 31.4823 24.5065 31.8947 23.9847 31.8947C22.7502 31.8947 21.5299 29.748 21.0626 28.825C20.1264 26.9765 19.5676 24.9703 19.5676 23.4587C19.5676 22.7715 19.7228 22.1119 20.0288 21.4982Z" fill="#B9BAC7"/>
<path d="M23.9848 21.2441C25.2671 21.2441 26.3103 22.2894 26.3103 23.5744C26.3103 24.8594 25.2671 25.9047 23.9848 25.9047C22.7025 25.9047 21.6592 24.8594 21.6592 23.5744C21.6592 22.2894 22.7025 21.2441 23.9848 21.2441ZM23.9848 24.9086C24.7178 24.9086 25.3142 24.3101 25.3142 23.5744C25.3142 22.8388 24.7178 22.2402 23.9848 22.2402C23.2517 22.2402 22.6553 22.8388 22.6553 23.5744C22.6553 24.3101 23.2517 24.9086 23.9848 24.9086Z" fill="#B9BAC7"/>
</svg>
