<svg width="6" height="24" viewBox="0 0 6 24" fill="none" xmlns="http://www.w3.org/2000/svg">
<path fill-rule="evenodd" clip-rule="evenodd" d="M0.606323 20.75C0.606323 22.1307 1.73513 23.25 3.12759 23.25C4.52004 23.25 5.64885 22.1307 5.64885 20.75C5.64885 19.3693 4.52004 18.25 3.12759 18.25C1.73513 18.25 0.606323 19.3693 0.606323 20.75ZM0.606323 12C0.606323 13.3807 1.73513 14.5 3.12759 14.5C4.52004 14.5 5.64885 13.3807 5.64885 12C5.64885 10.6193 4.52004 9.5 3.12759 9.5C1.73513 9.5 0.606323 10.6193 0.606323 12ZM3.12759 5.75C1.73513 5.75 0.606322 4.63071 0.606322 3.25C0.606322 1.86929 1.73513 0.749998 3.12759 0.749998C4.52004 0.749998 5.64885 1.86929 5.64885 3.25C5.64885 4.63071 4.52004 5.75 3.12759 5.75Z" fill="#484860"/>
</svg>
