<svg width="20" height="23" viewBox="0 0 20 23" fill="none" xmlns="http://www.w3.org/2000/svg">
<path d="M10.3962 0.878991L10.3962 0.878983C10.1426 0.773709 9.85744 0.773633 9.60377 0.878991C9.60376 0.878995 9.60375 0.878998 9.60374 0.879002L1.4371 4.2697L1.43709 4.2697C1.05142 4.42986 0.8 4.8064 0.8 5.22404V9.34591C0.8 15.1027 4.27955 20.2812 9.6095 22.4567C9.85979 22.5589 10.1402 22.5589 10.3905 22.4567L10.3905 22.4567C15.7204 20.2812 19.2 15.1028 19.2 9.34591V5.22404C19.2 4.80641 18.9486 4.42986 18.5629 4.2697L18.4862 4.45441L18.5629 4.2697L10.3962 0.878991ZM17.1333 9.34591C17.1333 14.0635 14.3798 18.4084 10 20.3759C5.73585 18.4598 2.86667 14.1902 2.86667 9.34591V5.91388L10 2.95217L17.1333 5.91388V9.34591ZM12.5193 8.43161L9.07892 11.872L7.48068 10.2738C7.48068 10.2737 7.48067 10.2737 7.48067 10.2737C7.07713 9.87016 6.42288 9.87024 6.01934 10.2737C5.61576 10.6773 5.61577 11.3315 6.01933 11.7351L8.34825 14.064C8.75171 14.4675 9.40596 14.4676 9.80959 14.064L13.9806 9.89297C13.9806 9.89296 13.9806 9.89296 13.9806 9.89296C14.3842 9.48944 14.3842 8.83518 13.9807 8.43162C13.5771 8.02805 12.9228 8.0281 12.5193 8.43161Z" fill="#080A0C" stroke="#080A0C" stroke-width="0.4"/>
</svg>
