<svg width="22" height="22" viewBox="0 0 22 22" fill="none" xmlns="http://www.w3.org/2000/svg">
<path d="M9.27846 4.82589H9.23529H3.35294H3.10294V5.07589V7.17883H1H0.75V7.42883V11.5465V11.7965H1H3.10294V13.8994V14.1494H3.35294H4.49399L6.55819 21.0301L6.61164 21.2083H6.79765H10.9671H11.3031L11.2065 20.8864L9.19339 14.176L18.5593 17.6882L18.8971 17.8149V17.4541V12.2729C20.2513 11.9039 21.25 10.6638 21.25 9.19354C21.25 7.72333 20.2513 6.48315 18.8971 6.11416V1V0.617746L18.5469 0.770961L9.27846 4.82589ZM2.42647 10.12V8.8553H3.10294V10.12H2.42647ZM4.77941 6.50236H7.80882V12.473H4.77941V6.50236ZM7.43517 14.1495L9.04988 19.5318H7.85895L6.24424 14.1495H7.43517ZM9.48529 6.56531L17.2206 3.18112V15.3958L9.48529 12.495V6.56531ZM19.5735 9.19354C19.5735 9.71833 19.3048 10.1822 18.8971 10.4542V7.93287C19.3048 8.20483 19.5735 8.66875 19.5735 9.19354Z" fill="#080A0C" stroke="#080A0C" stroke-width="0.5"/>
</svg>
