<svg width="30" height="30" viewBox="0 0 30 30" fill="none" xmlns="http://www.w3.org/2000/svg">
<path d="M15 8.47266C11.92 8.47266 9.41418 10.9785 9.41418 14.0585C9.41418 17.1386 11.92 19.6444 15 19.6444C18.0801 19.6444 20.5859 17.1386 20.5859 14.0585C20.5859 10.9785 18.0801 8.47266 15 8.47266ZM15 17.8866C12.8893 17.8866 11.172 16.1693 11.172 14.0585C11.172 11.9478 12.8893 10.2305 15 10.2305C17.1108 10.2305 18.8281 11.9475 18.8281 14.0585C18.8281 16.1693 17.1108 17.8866 15 17.8866Z" fill="#080A0C"/>
<path d="M28.9153 1.08467C28.2161 0.385208 27.2861 0 26.2969 0H3.70308C2.71385 0 1.78391 0.385208 1.08467 1.08467C0.385208 1.78391 0 2.71385 0 3.70308V7.46887C0 8.45787 0.385208 9.38782 1.08467 10.0873C1.78413 10.7867 2.71408 11.172 3.70308 11.172H5.64835V27.2383C5.64835 27.976 5.93559 28.6695 6.45721 29.1911C6.97884 29.7128 7.67235 30 8.41003 30H21.59C22.3277 30 23.0212 29.7128 23.5428 29.1911C24.0642 28.6695 24.3517 27.976 24.3517 27.2383V11.1717H26.2969C27.2861 11.1717 28.2161 10.7867 28.9153 10.0873C29.6148 9.38782 30 8.45787 30 7.46887V3.70308C30 2.71385 29.6148 1.78391 28.9153 1.08467ZM22.5938 27.2383C22.5938 27.5066 22.4892 27.7586 22.2997 27.9481C22.1102 28.1378 21.858 28.2422 21.59 28.2422H8.41003C8.14201 28.2422 7.88979 28.1378 7.70027 27.9481C7.51076 27.7586 7.40616 27.5063 7.40616 27.2383V6.46477H22.5938V27.2383ZM28.2422 7.46887C28.2422 7.98843 28.0399 8.47687 27.6723 8.84422C27.3049 9.21181 26.8165 9.41414 26.2969 9.41414H24.3514V6.465H25.3555C25.8408 6.465 26.2344 6.07132 26.2344 5.58609C26.2344 5.10063 25.8408 4.70718 25.3555 4.70718H4.64447C4.15924 4.70718 3.76556 5.10063 3.76556 5.58609C3.76556 6.07132 4.15924 6.465 4.64447 6.465H5.64835V9.41414H3.70308C3.18352 9.41414 2.69508 9.21181 2.3275 8.84422C1.96014 8.47687 1.75781 7.98843 1.75781 7.46887V3.70308C1.75781 3.18352 1.96014 2.69508 2.32773 2.3275C2.69508 1.96014 3.18352 1.75781 3.70308 1.75781H26.2969C26.8165 1.75781 27.3049 1.96014 27.6725 2.32773C28.0399 2.69508 28.2422 3.18352 28.2422 3.70308V7.46887Z" fill="#080A0C"/>
<path d="M19.707 23.5352H10.2931C9.80763 23.5352 9.41418 23.9286 9.41418 24.4141C9.41418 24.8993 9.80763 25.293 10.2931 25.293H19.707C20.1925 25.293 20.5859 24.8993 20.5859 24.4141C20.5859 23.9286 20.1925 23.5352 19.707 23.5352Z" fill="#080A0C"/>
</svg>
