<svg width="29" height="29" viewBox="0 0 29 29" fill="none" xmlns="http://www.w3.org/2000/svg">
<path d="M28.7092 11.6378C27.9445 7.84085 25.7482 4.56946 22.5239 2.42633C19.4434 0.378696 15.7407 -0.410181 12.0911 0.202264C12.0669 0.205889 12.0428 0.209513 12.0186 0.213138C4.14207 1.58189 -1.15164 9.10329 0.217054 16.9774C0.325802 17.608 0.479182 18.2374 0.668868 18.8414C1.46737 21.4351 1.27049 24.2149 0.115556 26.6696C-0.0861948 27.0949 -0.0197565 27.5998 0.283492 27.9611C0.586741 28.3223 1.0675 28.4709 1.52656 28.3489L6.94108 26.8702C9.23397 28.2739 11.8229 29 14.4661 29C15.4265 29 16.3942 28.9046 17.3582 28.7101C21.1551 27.9454 24.4265 25.7491 26.5697 22.5248C28.7128 19.3005 29.4727 15.4347 28.7092 11.6378ZM24.5571 21.1863C22.7704 23.8742 20.0438 25.7056 16.8811 26.3423C13.7208 26.9753 10.4965 26.3447 7.80852 24.558C7.60796 24.4251 7.37483 24.3562 7.13927 24.3562C7.03295 24.3562 6.92545 24.3707 6.82157 24.3985L3.13337 25.4049C3.75675 23.0286 3.71081 20.5122 2.97631 18.1215C2.81562 17.6116 2.68756 17.0898 2.59699 16.5643C1.46018 10.019 5.8442 3.76846 12.3762 2.6039C12.398 2.60146 12.4197 2.59784 12.4415 2.59421C15.499 2.06627 18.6038 2.72227 21.1866 4.43772C23.8746 6.22442 25.7048 8.95105 26.3414 12.1137C26.978 15.2777 26.3438 18.4996 24.5571 21.1863Z" fill="white"/>
<path d="M19.3282 10.874H9.66376C8.99569 10.874 8.45569 11.414 8.45569 12.0821C8.45569 12.7502 8.99569 13.2902 9.66376 13.2902H19.3282C19.9951 13.2902 20.5363 12.7502 20.5363 12.0821C20.5363 11.414 19.9963 10.874 19.3282 10.874Z" fill="white"/>
<path d="M19.3282 15.7061H9.66376C8.99569 15.7061 8.45569 16.2461 8.45569 16.9141C8.45569 17.5822 8.99569 18.1222 9.66376 18.1222H19.3282C19.9951 18.1222 20.5363 17.5822 20.5363 16.9141C20.5363 16.2461 19.9963 15.7061 19.3282 15.7061Z" fill="white"/>
</svg>
