<svg width="28" height="21" viewBox="0 0 28 21" fill="none" xmlns="http://www.w3.org/2000/svg">
<path fill-rule="evenodd" clip-rule="evenodd" d="M22.3502 11.4971C20.4811 11.4971 18.9606 9.94978 18.9606 8.04712C18.9606 6.1466 20.4811 4.59785 22.3502 4.59785C24.2192 4.59785 25.7398 6.1466 25.7398 8.04712C25.7398 9.94978 24.2192 11.4971 22.3502 11.4971ZM22.3502 6.89784C21.7267 6.89784 21.2208 7.4148 21.2208 8.04712C21.2208 8.68158 21.7267 9.19712 22.3502 9.19712C22.9737 9.19712 23.4803 8.68158 23.4803 8.04712C23.4803 7.4148 22.9737 6.89784 22.3502 6.89784ZM28 18.3957C28 19.0301 27.4948 19.5457 26.8699 19.5457C26.245 19.5457 25.7398 19.0301 25.7398 18.3957C25.7398 16.4937 24.2192 14.9464 22.3502 14.9464C21.5783 14.9464 20.8457 15.2155 20.253 15.6926C20.8681 16.8376 21.2208 18.15 21.2208 19.5457C21.2208 20.1794 20.7155 20.6957 20.0907 20.6957C19.4658 20.6957 18.9606 20.1794 18.9606 19.5457C18.9606 16.3755 16.4261 13.7964 13.3107 13.7964C10.1954 13.7964 7.66092 16.3755 7.66092 19.5457C7.66092 20.1794 7.1557 20.6957 6.53081 20.6957C5.90593 20.6957 5.40071 20.1794 5.40071 19.5457C5.40071 15.1073 8.95057 11.4971 13.3107 11.4971C15.4877 11.4971 17.461 12.3979 18.8927 13.8491C19.8744 13.0765 21.0836 12.6464 22.3502 12.6464C25.4655 12.6464 28 15.2255 28 18.3957ZM13.3107 9.19712C10.8182 9.19712 8.79102 7.13425 8.79102 4.59785C8.79102 2.06145 10.8182 0 13.3107 0C15.8033 0 17.8305 2.06145 17.8305 4.59785C17.8305 7.13425 15.8033 9.19712 13.3107 9.19712ZM13.3107 2.29928C12.0645 2.29928 11.0512 3.32965 11.0512 4.59785C11.0512 5.86605 12.0645 6.89784 13.3107 6.89784C14.557 6.89784 15.5702 5.86605 15.5702 4.59785C15.5702 3.32965 14.557 2.29928 13.3107 2.29928ZM5.64982 10.8669H4.51972V12.0169C4.51972 12.6492 4.011 13.1662 3.38961 13.1662C2.76823 13.1662 2.26021 12.6492 2.26021 12.0169V10.8669H1.1301C0.508722 10.8669 0 10.35 0 9.71693C0 9.08532 0.508722 8.56693 1.1301 8.56693H2.26021V7.41836C2.26021 6.78604 2.76823 6.26908 3.38961 6.26908C4.011 6.26908 4.51972 6.78604 4.51972 7.41836V8.56693H5.64982C6.27121 8.56693 6.77923 9.08532 6.77923 9.71693C6.77923 10.35 6.27121 10.8669 5.64982 10.8669Z" fill="#080A0C"/>
</svg>
