<svg width="60" height="60" viewBox="0 0 60 60" fill="none" xmlns="http://www.w3.org/2000/svg">
<g filter="url(#filter0_d)">
<circle cx="30" cy="30" r="22" fill="white"/>
<circle cx="30" cy="30" r="21.5" stroke="#424BE1"/>
</g>
<path fill-rule="evenodd" clip-rule="evenodd" d="M35.25 28.249H31.75V24.749C31.75 23.7865 30.9625 22.999 30 22.999C29.0375 22.999 28.25 23.7865 28.25 24.749V28.249H24.75C23.7875 28.249 23 29.0365 23 29.999C23 30.9615 23.7875 31.749 24.75 31.749H28.25V35.249C28.25 36.2115 29.0375 36.999 30 36.999C30.9625 36.999 31.75 36.2115 31.75 35.249V31.749H35.25C36.2125 31.749 37 30.9615 37 29.999C37 29.0365 36.2125 28.249 35.25 28.249Z" fill="#424BE1"/>
<defs>
<filter id="filter0_d" x="0" y="0" width="60" height="60" filterUnits="userSpaceOnUse" color-interpolation-filters="sRGB">
<feFlood flood-opacity="0" result="BackgroundImageFix"/>
<feColorMatrix in="SourceAlpha" type="matrix" values="0 0 0 0 0 0 0 0 0 0 0 0 0 0 0 0 0 0 127 0"/>
<feOffset/>
<feGaussianBlur stdDeviation="4"/>
<feColorMatrix type="matrix" values="0 0 0 0 0 0 0 0 0 0 0 0 0 0 0 0 0 0 0.12 0"/>
<feBlend mode="normal" in2="BackgroundImageFix" result="effect1_dropShadow"/>
<feBlend mode="normal" in="SourceGraphic" in2="effect1_dropShadow" result="shape"/>
</filter>
</defs>
</svg>
