<svg width="22" height="22" viewBox="0 0 22 22" fill="none" xmlns="http://www.w3.org/2000/svg">
<path d="M21.7794 8.82868C21.1993 5.94823 19.5331 3.46649 17.0871 1.84067C14.7501 0.287287 11.9412 -0.311172 9.17256 0.153441C9.15421 0.156191 9.13591 0.158941 9.11756 0.161691C3.14226 1.20006 -0.87366 6.90595 0.164661 12.8794C0.24716 13.3578 0.363517 13.8353 0.507417 14.2935C1.11318 16.2611 0.963823 18.3699 0.0876628 20.2321C-0.0653891 20.5547 -0.0149877 20.9378 0.215063 21.2118C0.445114 21.4858 0.809826 21.5986 1.15808 21.506L5.26565 20.3843C7.00508 21.4492 8.96906 22 10.9743 22C11.7029 22 12.437 21.9276 13.1683 21.7801C16.0487 21.1999 18.5305 19.5338 20.1563 17.0878C21.7821 14.6417 22.3586 11.7091 21.7794 8.82868ZM18.6295 16.0724C17.2741 18.1115 15.2056 19.5008 12.8063 19.9838C10.4089 20.464 7.96284 19.9857 5.9237 18.6302C5.77155 18.5294 5.5947 18.4771 5.41599 18.4771C5.33534 18.4771 5.25379 18.4881 5.17499 18.5092L2.37704 19.2727C2.84995 17.47 2.8151 15.561 2.25789 13.7473C2.13599 13.3606 2.03884 12.9647 1.97013 12.566C1.10772 7.60061 4.43353 2.85884 9.38886 1.97537C9.40536 1.97352 9.42186 1.97077 9.43836 1.96802C11.7579 1.56752 14.1132 2.06517 16.0726 3.36654C18.1117 4.72197 19.5002 6.79045 19.9831 9.18974C20.4661 11.59 19.9849 14.0342 18.6295 16.0724Z" fill="#424BE1"/>
<path d="M14.6632 8.24951H7.3315C6.8247 8.24951 6.41504 8.65917 6.41504 9.16598C6.41504 9.67278 6.8247 10.0824 7.3315 10.0824H14.6632C15.1691 10.0824 15.5796 9.67278 15.5796 9.16598C15.5796 8.65917 15.17 8.24951 14.6632 8.24951Z" fill="#424BE1"/>
<path d="M14.6632 11.9155H7.3315C6.8247 11.9155 6.41504 12.3252 6.41504 12.832C6.41504 13.3388 6.8247 13.7485 7.3315 13.7485H14.6632C15.1691 13.7485 15.5796 13.3388 15.5796 12.832C15.5796 12.3252 15.17 11.9155 14.6632 11.9155Z" fill="#424BE1"/>
</svg>
